HIERARCHY
ROOT Hips
{
	OFFSET -0.001795 -0.223333 0.028219
	CHANNELS 6 Xposition Yposition Zposition Zrotation Yrotation Xrotation 
	JOINT LeftUpLeg
	{
		OFFSET 0.069520 -0.091406 -0.006815
		CHANNELS 3 Zrotation Yrotation Xrotation
		JOINT LeftLeg
		{
			OFFSET 0.034277 -0.375199 -0.004496
			CHANNELS 3 Zrotation Yrotation Xrotation
			JOINT LeftFoot
			{
				OFFSET -0.013596 -0.397961 -0.043693
				CHANNELS 3 Zrotation Yrotation Xrotation
				JOINT LeftToe
				{
					OFFSET 0.026358 -0.055791 0.119288
					CHANNELS 3 Zrotation Yrotation Xrotation
					End Site
					{
						OFFSET 0.000000 0.000000 0.000000
					}
				}
			}
		}
	}
	JOINT RightUpLeg
	{
		OFFSET -0.067670 -0.090522 -0.004320
		CHANNELS 3 Zrotation Yrotation Xrotation
		JOINT RightLeg
		{
			OFFSET -0.038290 -0.382569 -0.008850
			CHANNELS 3 Zrotation Yrotation Xrotation
			JOINT RightFoot
			{
				OFFSET 0.015774 -0.398415 -0.042312
				CHANNELS 3 Zrotation Yrotation Xrotation
				JOINT RightToe
				{
					OFFSET -0.025372 -0.048144 0.123348
					CHANNELS 3 Zrotation Yrotation Xrotation
					End Site
					{
						OFFSET 0.000000 0.000000 0.000000
					}
				}
			}
		}
	}
	JOINT Spine
	{
		OFFSET -0.002533 0.108963 -0.026696
		CHANNELS 3 Zrotation Yrotation Xrotation
		JOINT Spine1
		{
			OFFSET 0.005487 0.135180 0.001092
			CHANNELS 3 Zrotation Yrotation Xrotation
			JOINT Spine2
			{
				OFFSET 0.001457 0.052922 0.025425
				CHANNELS 3 Zrotation Yrotation Xrotation
				JOINT Neck
				{
					OFFSET -0.002778 0.213870 -0.042857
					CHANNELS 3 Zrotation Yrotation Xrotation
					JOINT Head
					{
						OFFSET 0.005152 0.064970 0.051349
						CHANNELS 3 Zrotation Yrotation Xrotation
						End Site
						{
							OFFSET 0.000000 0.000000 0.000000
						}
					}
				}
				JOINT LeftShoulder
				{
					OFFSET 0.078845 0.121749 -0.034090
					CHANNELS 3 Zrotation Yrotation Xrotation
					JOINT LeftArm
					{
						OFFSET 0.090977 0.030469 -0.008868
						CHANNELS 3 Zrotation Yrotation Xrotation
						JOINT LeftForeArm
						{
							OFFSET 0.259612 -0.012772 -0.027456
							CHANNELS 3 Zrotation Yrotation Xrotation
							JOINT LeftHand
							{
								OFFSET 0.249234 0.008986 -0.001171
								CHANNELS 3 Zrotation Yrotation Xrotation
								End Site
								{
									OFFSET 0.000000 0.000000 0.000000
								}
							}
						}
					}
				}
				JOINT RightShoulder
				{
					OFFSET -0.081759 0.118833 -0.038615
					CHANNELS 3 Zrotation Yrotation Xrotation
					JOINT RightArm
					{
						OFFSET -0.096012 0.032551 -0.009143
						CHANNELS 3 Zrotation Yrotation Xrotation
						JOINT RightForeArm
						{
							OFFSET -0.253742 -0.013329 -0.021401
							CHANNELS 3 Zrotation Yrotation Xrotation
							JOINT RightHand
							{
								OFFSET -0.255298 0.007772 -0.005559
								CHANNELS 3 Zrotation Yrotation Xrotation
								End Site
								{
									OFFSET 0.000000 0.000000 0.000000
								}
							}
						}
					}
				}
			}
		}
	}
}
MOTION
Frames: 8
Frame Time: 0.050000
0.044115 0.992085 -0.023542 1.328468 -6.910795 2.354550 4.332116 -0.463342 -8.970132 -3.047976 0.733074 -18.799408 36.698508 25.184428 118.832982 0.000000 0.000000 0.000000 -1.525623 1.396616 -14.434552 3.562786 -0.303963 -13.544789 -59.895791 -24.805571 119.743913 0.000000 0.000000 0.000000 -2.899226 0.057241 0.321168 4.088301 1.645413 -47.550831 -1.220763 2.962335 47.159314 -5.951380 4.118909 -82.124942 0.000000 0.000000 0.000000 -33.070212 -2.008925 1.500406 -45.790633 -18.997901 -3.656596 -9.163214 35.750938 -3.284982 0.000000 0.000000 0.000000 19.281731 7.208648 3.103476 48.813813 15.979670 -3.432487 38.332753 -42.861159 -15.836069 0.000000 0.000000 0.000000 
0.044661 0.991699 -0.026475 1.217082 -6.954016 2.155146 4.326046 -0.457796 -8.892429 -2.842868 0.747459 -18.956261 37.072431 25.159273 119.210776 0.000000 0.000000 0.000000 -1.326063 1.420904 -14.503391 3.495603 -0.306489 -13.422966 -60.239477 -24.824912 119.765462 0.000000 0.000000 0.000000 -2.410791 0.034686 0.707064 3.329564 1.650751 -47.451285 -0.783890 2.959283 47.263455 -7.156115 4.165825 -82.852189 0.000000 0.000000 0.000000 -33.182602 -3.095864 2.283200 -45.757356 -19.163255 -3.600519 -9.657839 34.360239 -3.330047 0.000000 0.000000 0.000000 19.752656 7.790891 3.438332 48.664483 16.566012 -3.216136 36.183345 -40.717194 -14.149479 0.000000 0.000000 0.000000 
0.045234 0.991843 -0.029225 1.255490 -7.009550 1.992763 4.193632 -0.466126 -8.892013 -2.665522 0.753730 -18.886986 36.699663 25.179277 119.053786 0.000000 0.000000 0.000000 -1.250627 1.445283 -14.666564 3.559100 -0.306582 -13.094679 -61.007606 -25.199448 119.228469 0.000000 0.000000 0.000000 -2.028590 0.021629 0.756182 2.637310 1.586804 -46.563007 -0.850235 3.018767 46.568795 -6.890277 4.156590 -82.659773 0.000000 0.000000 0.000000 -32.897359 -3.408172 2.485170 -46.100997 -18.964499 -3.591472 -8.738592 34.967373 -3.065221 0.000000 0.000000 0.000000 20.375877 8.610072 3.865845 48.467452 17.003649 -2.938356 35.031258 -39.927099 -13.448222 0.000000 0.000000 0.000000 
0.045663 0.992313 -0.032519 1.320026 -6.703305 1.978322 3.964933 -0.491242 -8.940638 -2.587266 0.751907 -19.035960 36.510131 25.183823 118.249270 0.000000 0.000000 0.000000 -1.321161 1.472359 -15.017208 3.481986 -0.317987 -12.979332 -61.270271 -25.130607 119.696513 0.000000 0.000000 0.000000 -1.990745 0.003896 1.436448 2.024607 1.662279 -47.433555 -0.538595 2.598619 47.198425 -8.181274 4.215265 -83.650932 0.000000 0.000000 0.000000 -32.542062 -4.212011 3.143349 -46.252622 -18.828689 -3.702183 -9.143068 36.048693 -3.217429 0.000000 0.000000 0.000000 20.328034 8.695200 3.910618 48.736201 17.989261 -2.635480 34.393507 -40.222499 -13.235155 0.000000 0.000000 0.000000 
0.046046 0.992508 -0.036800 1.265820 -6.530967 2.142538 3.852994 -0.517519 -9.223062 -2.456352 0.760853 -19.293312 36.827499 25.207308 117.854693 0.000000 0.000000 0.000000 -1.292141 1.543832 -15.676306 3.356819 -0.328561 -12.664097 -60.790827 -24.979684 120.016849 0.000000 0.000000 0.000000 -1.804117 -0.012914 1.911363 1.254282 1.720990 -48.106546 -0.107309 1.999020 47.607679 -8.947031 4.268773 -84.551661 0.000000 0.000000 0.000000 -31.988842 -4.856333 3.786094 -46.290105 -18.990855 -3.723077 -9.121499 40.065604 -3.361755 0.000000 0.000000 0.000000 19.764975 9.064247 4.018081 49.097130 19.336893 -2.143669 35.575074 -41.954056 -14.270011 0.000000 0.000000 0.000000 
0.046379 0.992338 -0.041567 1.135456 -6.486445 2.239341 3.838813 -0.536924 -9.573738 -2.494593 0.753634 -19.207785 37.867385 25.391491 117.121772 0.000000 0.000000 0.000000 -1.073090 1.595206 -15.953793 3.309814 -0.331486 -12.651136 -60.755072 -25.294728 119.457461 0.000000 0.000000 0.000000 -1.607273 -0.045636 2.938854 0.565840 1.816553 -49.245068 0.211564 0.952818 48.337016 -9.432761 4.366551 -85.641431 0.000000 0.000000 0.000000 -31.135680 -5.497699 4.610715 -46.740436 -18.401294 -4.094421 -8.233123 43.675808 -3.024805 0.000000 0.000000 0.000000 18.973474 9.122315 3.833589 49.241635 20.765603 -1.661333 36.723105 -43.365847 -15.334703 0.000000 0.000000 0.000000 
0.046829 0.992314 -0.045621 1.164080 -7.281817 2.320447 3.595951 -0.545519 -9.529335 -1.768603 0.816934 -19.283411 36.462679 25.666441 116.451691 0.000000 0.000000 0.000000 -0.897530 1.652909 -16.191970 3.326204 -0.311027 -12.716851 -60.399531 -25.525566 118.276422 0.000000 0.000000 0.000000 -1.470288 -0.065121 3.510241 0.451059 1.892130 -49.222536 0.522615 0.924398 47.968631 -9.646697 4.417355 -86.922159 0.000000 0.000000 0.000000 -31.207250 -5.674951 4.950200 -46.062259 -16.902980 -4.675064 -5.873541 50.592826 -2.143362 0.000000 0.000000 0.000000 18.755032 9.640420 3.956658 48.833883 22.361800 -1.001665 39.395168 -45.408685 -17.395915 0.000000 0.000000 0.000000 
0.047365 0.991300 -0.048326 1.022408 -7.617545 2.352863 3.707193 -0.530688 -9.514605 -1.699040 0.838158 -19.431678 36.871495 25.828729 116.329204 0.000000 0.000000 0.000000 -0.558091 1.650358 -15.836881 3.308155 -0.296587 -13.364808 -60.801075 -26.048254 117.144181 0.000000 0.000000 0.000000 -1.287482 -0.088977 4.086300 0.297462 2.007728 -50.208670 0.760284 0.500276 49.060546 -10.139713 4.469550 -88.194455 0.000000 0.000000 0.000000 -30.038951 -5.808515 5.239479 -45.595312 -15.502838 -5.313692 -6.903561 63.529431 -2.826506 0.000000 0.000000 0.000000 18.263581 9.701803 3.884792 47.939426 24.148918 -0.513055 42.297436 -47.171193 -19.585942 0.000000 0.000000 0.000000 
